<svg id="Слой_1" data-name="Слой 1" xmlns="http://www.w3.org/2000/svg" xmlns:xlink="http://www.w3.org/1999/xlink" viewBox="0 0 515.49 643.17"><defs><style>.cls-1{fill:url(#Безымянный_градиент_9);}.cls-2,.cls-3{stroke:#000;stroke-miterlimit:10;}.cls-2{fill:url(#Безымянный_градиент_7);}.cls-3{fill:url(#Безымянный_градиент_8);}</style><linearGradient id="Безымянный_градиент_9" x1="-67.06" y1="507.52" x2="416.84" y2="325.62" gradientUnits="userSpaceOnUse"><stop offset="0" stop-color="#fff"/><stop offset="0.69" stop-color="#ffc752"/></linearGradient><linearGradient id="Безымянный_градиент_7" x1="373.95" y1="241.97" x2="626.89" y2="241.97" gradientUnits="userSpaceOnUse"><stop offset="0" stop-color="#fff"/><stop offset="0.15" stop-color="#fff8d7"/><stop offset="0.83" stop-color="#ffd61c"/><stop offset="1" stop-color="#d9e021"/></linearGradient><linearGradient id="Безымянный_градиент_8" x1="409.72" y1="260.09" x2="590.28" y2="260.09" gradientUnits="userSpaceOnUse"><stop offset="0" stop-color="#fff"/><stop offset="1" stop-color="#ffc232"/></linearGradient></defs><rect class="cls-1" x="0.5" y="128.18" width="514.49" height="514.49" rx="37.36"/><path d="M719.88,306.84a36.91,36.91,0,0,1,36.87,36.87V783.47a36.9,36.9,0,0,1-36.87,36.86H280.12a36.9,36.9,0,0,1-36.87-36.86V343.71a36.91,36.91,0,0,1,36.87-36.87H719.88m0-1H280.12a37.88,37.88,0,0,0-37.87,37.87V783.47a37.87,37.87,0,0,0,37.87,37.86H719.88a37.87,37.87,0,0,0,37.87-37.86V343.71a37.88,37.88,0,0,0-37.87-37.87Z" transform="translate(-242.25 -178.17)"/><path class="cls-2" d="M626.89,305.14a126.47,126.47,0,1,0-252.94,0s0,.09,0,.14H626.89Z" transform="translate(-242.25 -178.17)"/><path class="cls-3" d="M590.28,305.18a90.28,90.28,0,1,0-180.56,0v.1H590.28Z" transform="translate(-242.25 -178.17)"/></svg>