<svg id="Layer_1" data-name="Layer 1" xmlns="http://www.w3.org/2000/svg" xmlns:xlink="http://www.w3.org/1999/xlink" viewBox="0 0 2221.01 119.45"><defs><style>.cls-1{fill:#7ec291;}.cls-2{fill:#5fb98b;}.cls-3{fill:#1b212d;}.cls-4{fill:url(#radial-gradient);}.cls-5{opacity:0.2;}.cls-6{fill:#434342;}.cls-7{fill:url(#linear-gradient);}.cls-8{fill:url(#linear-gradient-2);}.cls-9{fill:#568c31;}.cls-10{fill:#412413;}.cls-11{fill:url(#linear-gradient-3);}.cls-12{fill:url(#radial-gradient-2);}.cls-13{fill:url(#linear-gradient-4);}.cls-14{fill:url(#linear-gradient-5);}.cls-15{fill:url(#linear-gradient-6);}.cls-16{fill:url(#radial-gradient-3);}.cls-17{fill:url(#linear-gradient-7);}.cls-18{fill:url(#linear-gradient-8);}.cls-19{fill:url(#linear-gradient-9);}.cls-20{fill:url(#radial-gradient-4);}.cls-21{fill:url(#linear-gradient-10);}.cls-22{fill:url(#linear-gradient-11);}.cls-23{fill:url(#linear-gradient-12);}.cls-24{fill:url(#radial-gradient-5);}.cls-25{fill:url(#linear-gradient-13);}.cls-26{fill:url(#linear-gradient-14);}.cls-27{fill:url(#linear-gradient-15);}.cls-28{fill:url(#radial-gradient-6);}.cls-29{fill:url(#linear-gradient-16);}.cls-30{fill:url(#linear-gradient-17);}.cls-31{fill:url(#linear-gradient-18);}.cls-32{fill:url(#radial-gradient-7);}.cls-33{fill:url(#linear-gradient-19);}.cls-34{fill:url(#linear-gradient-20);}.cls-35{fill:url(#linear-gradient-21);}.cls-36{fill:url(#radial-gradient-8);}.cls-37{fill:url(#linear-gradient-22);}.cls-38{fill:url(#linear-gradient-23);}.cls-39{fill:url(#linear-gradient-24);}.cls-40{fill:url(#radial-gradient-9);}.cls-41{fill:url(#linear-gradient-25);}.cls-42{fill:url(#linear-gradient-26);}.cls-43{fill:url(#linear-gradient-27);}</style><radialGradient id="radial-gradient" cx="207.41" cy="-164.03" r="52.38" gradientTransform="matrix(0.9, 0.51, 0.55, -0.89, -32.24, -88.67)" gradientUnits="userSpaceOnUse"><stop offset="0.11" stop-color="#f18780"/><stop offset="0.19" stop-color="#ef7b75"/><stop offset="0.34" stop-color="#eb5d58"/><stop offset="0.54" stop-color="#e62e2a"/><stop offset="0.67" stop-color="#e41313"/><stop offset="0.92" stop-color="#b91818"/><stop offset="1" stop-color="#b61f1e"/></radialGradient><linearGradient id="linear-gradient" x1="68.52" y1="319.5" x2="101.26" y2="319.5" gradientTransform="matrix(1, 0, 0, -1, 0, 463.77)" gradientUnits="userSpaceOnUse"><stop offset="0" stop-color="#e41313" stop-opacity="0"/><stop offset="0.55" stop-color="#412413"/><stop offset="1" stop-color="#e41313" stop-opacity="0"/></linearGradient><linearGradient id="linear-gradient-2" x1="87.67" y1="279.85" x2="134.27" y2="279.85" gradientTransform="matrix(1, 0.07, 0.07, -1, -16.53, 390.48)" gradientUnits="userSpaceOnUse"><stop offset="0.12" stop-color="#699f38"/><stop offset="0.32" stop-color="#73a843"/><stop offset="0.67" stop-color="#8fbe61"/><stop offset="0.99" stop-color="#afd181"/></linearGradient><linearGradient id="linear-gradient-3" x1="73.62" y1="350.95" x2="84.68" y2="317.44" gradientTransform="matrix(1, 0, 0, -1, 0, 463.77)" gradientUnits="userSpaceOnUse"><stop offset="0" stop-color="#8c633a"/><stop offset="0.99" stop-color="#603914"/></linearGradient><radialGradient id="radial-gradient-2" cx="1948.97" cy="826.76" r="52.38" xlink:href="#radial-gradient"/><linearGradient id="linear-gradient-4" x1="2185.01" y1="319.5" x2="2217.75" y2="319.5" xlink:href="#linear-gradient"/><linearGradient id="linear-gradient-5" x1="2199.43" y1="422.3" x2="2246.03" y2="422.3" xlink:href="#linear-gradient-2"/><linearGradient id="linear-gradient-6" x1="2190.11" y1="350.95" x2="2201.17" y2="317.44" xlink:href="#linear-gradient-3"/><radialGradient id="radial-gradient-3" cx="1839.81" cy="764.66" r="52.38" xlink:href="#radial-gradient"/><linearGradient id="linear-gradient-7" x1="2052.35" y1="319.5" x2="2085.09" y2="319.5" xlink:href="#linear-gradient"/><linearGradient id="linear-gradient-8" x1="2067.06" y1="413.37" x2="2113.67" y2="413.37" xlink:href="#linear-gradient-2"/><linearGradient id="linear-gradient-9" x1="2057.45" y1="350.95" x2="2068.51" y2="317.44" xlink:href="#linear-gradient-3"/><radialGradient id="radial-gradient-4" cx="1731.12" cy="703.14" r="52.38" xlink:href="#radial-gradient"/><linearGradient id="linear-gradient-10" x1="1920.44" y1="319.77" x2="1953.18" y2="319.77" xlink:href="#linear-gradient"/><linearGradient id="linear-gradient-11" x1="1935.43" y1="404.77" x2="1982.03" y2="404.77" xlink:href="#linear-gradient-2"/><linearGradient id="linear-gradient-12" x1="1925.54" y1="351.23" x2="1936.6" y2="317.71" xlink:href="#linear-gradient-3"/><radialGradient id="radial-gradient-5" cx="1622.58" cy="641.39" r="52.38" xlink:href="#radial-gradient"/><linearGradient id="linear-gradient-13" x1="1788.52" y1="319.77" x2="1821.27" y2="319.77" xlink:href="#linear-gradient"/><linearGradient id="linear-gradient-14" x1="1803.81" y1="395.89" x2="1850.41" y2="395.89" xlink:href="#linear-gradient-2"/><linearGradient id="linear-gradient-15" x1="1793.63" y1="351.23" x2="1804.69" y2="317.71" xlink:href="#linear-gradient-3"/><radialGradient id="radial-gradient-6" cx="1514.03" cy="579.64" r="52.38" xlink:href="#radial-gradient"/><linearGradient id="linear-gradient-16" x1="1656.61" y1="319.77" x2="1689.36" y2="319.77" xlink:href="#linear-gradient"/><linearGradient id="linear-gradient-17" x1="1672.19" y1="387.02" x2="1718.8" y2="387.02" xlink:href="#linear-gradient-2"/><linearGradient id="linear-gradient-18" x1="1661.72" y1="351.23" x2="1672.78" y2="317.71" xlink:href="#linear-gradient-3"/><radialGradient id="radial-gradient-7" cx="320.6" cy="-99.33" r="52.38" xlink:href="#radial-gradient"/><linearGradient id="linear-gradient-19" x1="206.24" y1="319.77" x2="238.98" y2="319.77" xlink:href="#linear-gradient"/><linearGradient id="linear-gradient-20" x1="225.06" y1="289.39" x2="271.66" y2="289.39" xlink:href="#linear-gradient-2"/><linearGradient id="linear-gradient-21" x1="211.34" y1="351.23" x2="222.4" y2="317.71" xlink:href="#linear-gradient-3"/><radialGradient id="radial-gradient-8" cx="433.92" cy="-34.86" r="52.38" xlink:href="#radial-gradient"/><linearGradient id="linear-gradient-22" x1="343.96" y1="319.77" x2="376.7" y2="319.77" xlink:href="#linear-gradient"/><linearGradient id="linear-gradient-23" x1="362.48" y1="298.67" x2="409.08" y2="298.67" xlink:href="#linear-gradient-2"/><linearGradient id="linear-gradient-24" x1="349.07" y1="351.23" x2="360.13" y2="317.71" xlink:href="#linear-gradient-3"/><radialGradient id="radial-gradient-9" cx="547.24" cy="29.62" r="52.38" xlink:href="#radial-gradient"/><linearGradient id="linear-gradient-25" x1="481.68" y1="319.77" x2="514.43" y2="319.77" xlink:href="#linear-gradient"/><linearGradient id="linear-gradient-26" x1="499.89" y1="307.94" x2="546.49" y2="307.94" xlink:href="#linear-gradient-2"/><linearGradient id="linear-gradient-27" x1="486.79" y1="351.23" x2="497.85" y2="317.71" xlink:href="#linear-gradient-3"/></defs><title>Shapka</title><g id="Caterpillar"><path id="path8267-2" class="cls-1" d="M1725.84,114.55a14.64,14.64,0,0,0-14.42,14.84,14.9,14.9,0,0,0,2.31,8h0v9.93a8,8,0,0,1-7.89,8.13h-44.13a12.87,12.87,0,0,0-12.69,13h0a12.26,12.26,0,0,0,12.69,11.85h53.23c12.71,0,23-10.59,23-23.66h0v-19.3a15.09,15.09,0,0,0-4.31-20.51A14.25,14.25,0,0,0,1725.84,114.55Z" transform="translate(-33.89 -103.94)"/><path id="path10320" class="cls-2" d="M1725.84,114.55a14.9,14.9,0,0,0-3.26.39,15,15,0,0,1,8.86,22.5v19.29c0,13.07-10.3,23.66-23,23.66h6.52c12.71,0,23-10.59,23-23.66h0v-19.3a15.09,15.09,0,0,0-4.31-20.51A14.25,14.25,0,0,0,1725.84,114.55Z" transform="translate(-33.89 -103.94)"/><path class="cls-3" d="M1732.81,114.55v-4.8a2.4,2.4,0,1,1,4.79,0,1.63,1.63,0,1,0,3.26,0,5.66,5.66,0,1,0-11.31,0v3.58a15,15,0,0,0-7.41,0v-3.58a5.66,5.66,0,1,0-11.31,0,1.63,1.63,0,1,0,3.26,0,2.4,2.4,0,1,1,4.79,0v4.8a16.69,16.69,0,0,0-7.56,22c.24.51.5,1,.78,1.48v9.46a6.38,6.38,0,0,1-6.27,6.46h-44.12a14.56,14.56,0,0,0-14.32,14.7,13.92,13.92,0,0,0,14.32,13.4h53.23c13.58-.05,24.58-11.33,24.65-25.29V137.9a16.75,16.75,0,0,0-5.34-22.65c-.47-.29-1-.56-1.44-.8Zm-71.18,64.17a10.62,10.62,0,0,1-11-10.18,11.24,11.24,0,0,1,11.06-11.37h2.76c-2.17,3.73-4.45,11,.6,21.55Zm7.11,0c-6.68-12.58-1.8-19.76-.28-21.55h18.17c-2.17,3.73-4.45,11,.6,21.55Zm46.2,0h-24c-6.68-12.58-1.79-19.76-.26-21.55h15.56c-.29,3.7-.23,11.07,4.09,16.42a15.42,15.42,0,0,0,7.25,5A22.52,22.52,0,0,1,1714.94,178.72Zm21.39-22a22.05,22.05,0,0,1-11.71,19.58c-5.3-.09-9.28-1.68-11.8-4.84-4-5-3.55-12.51-3.26-15.07a9.93,9.93,0,0,0,3-2.09,12.65,12.65,0,0,0,.82-1,19.72,19.72,0,0,0,11.14,3.35,26.57,26.57,0,0,0,11.8-3Zm.28-20.26a14.29,14.29,0,0,1-11,5.34,1.68,1.68,0,0,0,0,3.35,17.18,17.18,0,0,0,10.72-3.82v8.54c-11.4,6.37-19,2.23-21.41.46a10.75,10.75,0,0,0,.44-3v-9.93a1.73,1.73,0,0,0-.26-.92,13.24,13.24,0,0,1-2-7.14,12.81,12.81,0,1,1,25.61-.09A13.39,13.39,0,0,1,1736.61,136.47Z" transform="translate(-33.89 -103.94)"/><path class="cls-3" d="M1721.13,123.66a1.65,1.65,0,0,0-1.63,1.68v2.89a1.63,1.63,0,1,0,3.26,0v-2.89A1.65,1.65,0,0,0,1721.13,123.66Z" transform="translate(-33.89 -103.94)"/><path class="cls-3" d="M1730.09,123.66a1.65,1.65,0,0,0-1.63,1.68v2.89a1.63,1.63,0,1,0,3.26,0v-2.89A1.65,1.65,0,0,0,1730.09,123.66Z" transform="translate(-33.89 -103.94)"/></g><g id="Layer_1-2" data-name="Layer 1"><path class="cls-4" d="M55.23,132.73c-9.21,3.15-25.7,17-20.25,45.55s24.82,41,30.81,43,7.92-.67,11.44.17,9.33,2.52,11.62,1.68,3-2,7-1.85,11.09-4.37,16.72-11.26,38.14-51.78,2-76c0,0-5.76-4.52-15.74-4.09-8.46.36-11.18,4.24-19.7,3.56C72.44,133,67,128.7,55.23,132.73Z" transform="translate(-33.89 -103.94)"/><g class="cls-5"><path class="cls-6" d="M100.17,133h0c7.91,0,12.54,3.46,12.57,3.48l.18.13c8.68,5.81,13.77,13.37,15.12,22.47,1.32,8.86-.76,19.13-6.19,30.51a99.55,99.55,0,0,1-11.56,18.61c-5.13,6.28-11.36,10.17-14.18,10.17H96l-.87,0a11.78,11.78,0,0,0-6,1.46,12.3,12.3,0,0,1-1.29.59,2.75,2.75,0,0,1-.64.05A40.1,40.1,0,0,1,79.56,219l-1.64-.4a8.91,8.91,0,0,0-2.12-.25,14.84,14.84,0,0,0-3.11.41,12.54,12.54,0,0,1-2.63.36,10.37,10.37,0,0,1-3.31-.61c-4.75-1.6-23.56-13.21-28.82-40.75-2.26-11.83-.84-22,4.23-30.17,4.15-6.71,10-10.59,14-12A26,26,0,0,1,64.67,134a30.65,30.65,0,0,1,8,1.29,35.66,35.66,0,0,0,6.25,1.21c.74.06,1.47.09,2.18.09a27.89,27.89,0,0,0,9.63-1.87A27.49,27.49,0,0,1,99,133c.4,0,.79,0,1.18,0m0-3-1.32,0c-7.78.33-10.71,3.64-17.76,3.64-.61,0-1.26,0-1.94-.08-4.62-.37-8.62-2.51-14.49-2.51a28.93,28.93,0,0,0-9.44,1.71c-9.21,3.15-25.7,17-20.25,45.55s24.82,41,30.81,43a13.1,13.1,0,0,0,4.27.77c2.36,0,3.93-.77,5.74-.77a6.12,6.12,0,0,1,1.43.17c2.85.68,7.19,1.91,10,1.91a5,5,0,0,0,1.66-.23c2.14-.79,2.89-1.87,6.29-1.87l.75,0h.22c4.08,0,11-4.5,16.5-11.27s38.14-51.78,2-76c0,0-5.23-4.12-14.4-4.12Z" transform="translate(-33.89 -103.94)"/></g><path class="cls-7" d="M69.94,144.46c-.83-.58-1.4-1.75-.77-2.43s4.27-.32,7.13.26c.71.18,5.79,1.57,8.7,1.46a45.76,45.76,0,0,0,7.79-1.4c3.7-.87,3.62-1.31,5.3-1.45s3.3-.13,3.53.72-.75,1.79-1.75,2.41A27.7,27.7,0,0,1,85,147.72C78.63,147.59,73.4,146.89,69.94,144.46Z" transform="translate(-33.89 -103.94)"/><path class="cls-8" d="M134.15,108.18c-3,1.35-6.5-.83-10-2.12a30.89,30.89,0,0,0-15.37-1,25.51,25.51,0,0,0-11.35,5.74c-5.86,5.12-7.63,12-8.21,14.56a7.16,7.16,0,0,1,.8,1.31l.16,0c4.36-.71,13,9.18,27.7,5.39s19.19-25.32,19.19-25.32l.12-.08S134.81,107.89,134.15,108.18Z" transform="translate(-33.89 -103.94)"/><g class="cls-5"><path class="cls-6" d="M114.42,107.52a28.5,28.5,0,0,1,8.69,1.35c.68.25,1.37.54,2.11.85a17.92,17.92,0,0,0,6.86,1.88h.41c-2.23,6.1-6.94,15.41-15.36,17.58a23.88,23.88,0,0,1-5.92.77c-5.71,0-10.18-2.21-13.77-4a27.92,27.92,0,0,0-4.74-2,23.13,23.13,0,0,1,6.7-10.86,22.25,22.25,0,0,1,10-5.06,24.87,24.87,0,0,1,5-.5h0m24,1.89h0m-24-4.89a27.76,27.76,0,0,0-5.65.57,25.51,25.51,0,0,0-11.35,5.74c-5.86,5.12-7.63,12-8.21,14.56a7.16,7.16,0,0,1,.8,1.31l.16,0a3.59,3.59,0,0,1,.47,0c3.74,0,10.28,6.3,20.56,6.3a26.76,26.76,0,0,0,6.67-.87c14.71-3.79,19.19-25.32,19.19-25.32l.12-.08h0s-2.38,1.21-3,1.5a5,5,0,0,1-2.08.42c-2.5,0-5.2-1.54-7.93-2.55a31.45,31.45,0,0,0-9.72-1.53Z" transform="translate(-33.89 -103.94)"/></g><path class="cls-9" d="M82.71,138.5s0-.05,0-.15,0-.21.08-.38c.09-.46.23-1.19.44-2.13a26.65,26.65,0,0,1,2.9-7.5,19,19,0,0,1,3.42-4.28A16.19,16.19,0,0,1,92,122.22c.43-.28.87-.53,1.35-.78l.65-.32.73-.33a19.81,19.81,0,0,1,6.22-1.55,41.07,41.07,0,0,1,6.39.13,42.93,42.93,0,0,0,6.07.18,19.88,19.88,0,0,0,5.63-1.18,40.05,40.05,0,0,0,5.08-2.21c1.57-.81,3-1.64,4.34-2.47a62.14,62.14,0,0,0,6.11-4.34c.7-.58,1.23-1,1.57-1.39a5.28,5.28,0,0,0,.5-.54l.11.08a7.34,7.34,0,0,1-.47.59c-.32.37-.82.89-1.48,1.52a54.19,54.19,0,0,1-5.88,4.78c-1.27.92-2.7,1.85-4.26,2.78a40.9,40.9,0,0,1-5.08,2.59,20,20,0,0,1-6,1.6,43.38,43.38,0,0,1-6.34.1,31.38,31.38,0,0,0-6,.19,16.8,16.8,0,0,0-5.3,1.69l-.58.3-.62.36c-.35.21-.74.44-1.08.69a12.86,12.86,0,0,0-1.9,1.6A15.66,15.66,0,0,0,89,130a22.62,22.62,0,0,0-2.2,6.63c-.15.85-.25,1.53-.32,2,0,.25-.07.45-.13.71l-.06.22Z" transform="translate(-33.89 -103.94)"/><path class="cls-10" d="M78.09,113.23a4.89,4.89,0,0,0-1.91-2.17c-2.83-1-6.2,2.43-7,3.25C72.05,116.54,75.4,115,78.09,113.23Z" transform="translate(-33.89 -103.94)"/><path class="cls-11" d="M86.21,138.61c-1-5.9-5-19.93-8.12-25.37-2.69,1.74-6,3.31-8.87,1.08l-.16.18c6.64,7.79,9.22,10.85,12,18.82,2.88,8.18,3.5,11.69,3.33,13s2.1.35,2.1.35S87.53,146.49,86.21,138.61Z" transform="translate(-33.89 -103.94)"/><g class="cls-5"><path class="cls-6" d="M75.1,113a1.12,1.12,0,0,1,.27,0,5.57,5.57,0,0,1,.9,1.28c1.79,3.09,4,9.4,5.63,15.24-2.39-5.78-5-9.08-10-14.91A6,6,0,0,1,75.1,113m0-2.1c-2.55,0-5.21,2.71-5.87,3.43l-.16.18c6.64,7.79,9.22,10.85,12,18.82,2.88,8.18,3.5,11.69,3.33,13-.07.54.26.69.68.69a4.58,4.58,0,0,0,1.43-.34s1-.13-.31-8c-1-5.9-5-19.93-8.12-25.37a4.89,4.89,0,0,0-1.91-2.17,3.21,3.21,0,0,0-1.09-.19Z" transform="translate(-33.89 -103.94)"/></g></g><g id="Layer_1-3" data-name="Layer 1"><path class="cls-12" d="M2171.72,132.73c-9.21,3.15-25.7,17-20.25,45.55s24.82,41,30.81,43,7.92-.67,11.44.17,9.33,2.52,11.62,1.68,3-2,7-1.85,11.09-4.37,16.72-11.26,38.14-51.78,2-76c0,0-5.76-4.52-15.74-4.09-8.46.36-11.18,4.24-19.7,3.56C2188.93,133,2183.52,128.7,2171.72,132.73Z" transform="translate(-33.89 -103.94)"/><g class="cls-5"><path class="cls-6" d="M2216.66,133h0c7.91,0,12.54,3.46,12.57,3.48l.18.13c8.68,5.81,13.77,13.37,15.12,22.47,1.32,8.86-.76,19.13-6.19,30.51a99.55,99.55,0,0,1-11.56,18.61c-5.13,6.28-11.36,10.17-14.18,10.17h-.1l-.87,0a11.78,11.78,0,0,0-6,1.46,12.3,12.3,0,0,1-1.29.59,2.75,2.75,0,0,1-.64.05,40.1,40.1,0,0,1-7.63-1.42l-1.64-.4a8.91,8.91,0,0,0-2.12-.25,14.84,14.84,0,0,0-3.11.41,12.54,12.54,0,0,1-2.63.36,10.37,10.37,0,0,1-3.31-.61c-4.75-1.6-23.56-13.21-28.82-40.75-2.26-11.83-.84-22,4.23-30.17,4.15-6.71,10-10.59,14-12a26,26,0,0,1,8.47-1.55,30.65,30.65,0,0,1,8,1.29,35.66,35.66,0,0,0,6.25,1.21c.74.06,1.47.09,2.18.09a27.89,27.89,0,0,0,9.63-1.87,27.49,27.49,0,0,1,8.25-1.77c.4,0,.79,0,1.18,0m0-3-1.32,0c-7.78.33-10.71,3.64-17.76,3.64-.61,0-1.26,0-1.94-.08-4.62-.37-8.62-2.51-14.49-2.51a28.93,28.93,0,0,0-9.44,1.71c-9.21,3.15-25.7,17-20.25,45.55s24.82,41,30.81,43a13.1,13.1,0,0,0,4.27.77c2.36,0,3.93-.77,5.74-.77a6.12,6.12,0,0,1,1.43.17c2.85.68,7.19,1.91,10,1.91a5,5,0,0,0,1.66-.23c2.14-.79,2.89-1.87,6.29-1.87l.75,0h.22c4.08,0,11-4.5,16.5-11.27s38.14-51.78,2-76c0,0-5.23-4.12-14.4-4.12Z" transform="translate(-33.89 -103.94)"/></g><path class="cls-13" d="M2186.43,144.46c-.83-.58-1.4-1.75-.77-2.43s4.27-.32,7.13.26c.71.18,5.79,1.57,8.7,1.46a45.76,45.76,0,0,0,7.79-1.4c3.7-.87,3.62-1.31,5.3-1.45s3.3-.13,3.53.72-.75,1.79-1.75,2.41a27.7,27.7,0,0,1-14.85,3.69C2195.12,147.59,2189.89,146.89,2186.43,144.46Z" transform="translate(-33.89 -103.94)"/><path class="cls-14" d="M2250.64,108.18c-3,1.35-6.5-.83-10-2.12a30.89,30.89,0,0,0-15.37-1,25.51,25.51,0,0,0-11.35,5.74c-5.86,5.12-7.63,12-8.21,14.56a7.16,7.16,0,0,1,.8,1.31l.16,0c4.36-.71,13,9.18,27.7,5.39s19.19-25.32,19.19-25.32l.12-.08S2251.3,107.89,2250.64,108.18Z" transform="translate(-33.89 -103.94)"/><g class="cls-5"><path class="cls-6" d="M2230.91,107.52a28.5,28.5,0,0,1,8.69,1.35c.68.25,1.37.54,2.11.85a17.92,17.92,0,0,0,6.86,1.88h.41c-2.23,6.1-6.94,15.41-15.36,17.58a23.88,23.88,0,0,1-5.92.77c-5.71,0-10.18-2.21-13.77-4a27.92,27.92,0,0,0-4.74-2,23.13,23.13,0,0,1,6.7-10.86,22.25,22.25,0,0,1,10-5.06,24.87,24.87,0,0,1,5-.5h0m24,1.89h0m-24-4.89a27.76,27.76,0,0,0-5.65.57,25.51,25.51,0,0,0-11.35,5.74c-5.86,5.12-7.63,12-8.21,14.56a7.16,7.16,0,0,1,.8,1.31l.16,0a3.59,3.59,0,0,1,.47,0c3.74,0,10.28,6.3,20.56,6.3a26.76,26.76,0,0,0,6.67-.87c14.71-3.79,19.19-25.32,19.19-25.32l.12-.08h0s-2.38,1.21-3,1.5a5,5,0,0,1-2.08.42c-2.5,0-5.2-1.54-7.93-2.55a31.45,31.45,0,0,0-9.72-1.53Z" transform="translate(-33.89 -103.94)"/></g><path class="cls-9" d="M2199.2,138.5s0-.05,0-.15.05-.21.08-.38c.09-.46.23-1.19.44-2.13a26.65,26.65,0,0,1,2.9-7.5,19,19,0,0,1,3.42-4.28,16.19,16.19,0,0,1,2.38-1.84c.43-.28.87-.53,1.35-.78l.65-.32.73-.33a19.81,19.81,0,0,1,6.22-1.55,41.07,41.07,0,0,1,6.39.13,42.93,42.93,0,0,0,6.07.18,19.88,19.88,0,0,0,5.63-1.18,40.05,40.05,0,0,0,5.08-2.21c1.57-.81,3-1.64,4.34-2.47a62.14,62.14,0,0,0,6.11-4.34c.7-.58,1.23-1,1.57-1.39a5.28,5.28,0,0,0,.5-.54l.11.08a7.34,7.34,0,0,1-.47.59c-.32.37-.82.89-1.48,1.52a54.19,54.19,0,0,1-5.88,4.78c-1.27.92-2.7,1.85-4.26,2.78a40.9,40.9,0,0,1-5.08,2.59,20,20,0,0,1-6,1.6,43.38,43.38,0,0,1-6.34.1,31.38,31.38,0,0,0-6,.19,16.8,16.8,0,0,0-5.3,1.69l-.58.3-.62.36c-.35.21-.74.44-1.08.69a12.86,12.86,0,0,0-1.9,1.6,15.66,15.66,0,0,0-2.7,3.67,22.62,22.62,0,0,0-2.2,6.63c-.15.85-.25,1.53-.32,2,0,.25-.07.45-.13.71l-.06.22Z" transform="translate(-33.89 -103.94)"/><path class="cls-10" d="M2194.58,113.23a4.89,4.89,0,0,0-1.91-2.17c-2.83-1-6.2,2.43-7,3.25C2188.54,116.54,2191.89,115,2194.58,113.23Z" transform="translate(-33.89 -103.94)"/><path class="cls-15" d="M2202.7,138.61c-1-5.9-5-19.93-8.12-25.37-2.69,1.74-6,3.31-8.87,1.08l-.16.18c6.64,7.79,9.22,10.85,12,18.82,2.88,8.18,3.5,11.69,3.33,13s2.1.35,2.1.35S2204,146.49,2202.7,138.61Z" transform="translate(-33.89 -103.94)"/><g class="cls-5"><path class="cls-6" d="M2191.59,113a1.12,1.12,0,0,1,.27,0,5.57,5.57,0,0,1,.9,1.28c1.79,3.09,4,9.4,5.63,15.24-2.39-5.78-5-9.08-10-14.91a6,6,0,0,1,3.17-1.64m0-2.1c-2.55,0-5.21,2.71-5.87,3.43l-.16.18c6.64,7.79,9.22,10.85,12,18.82,2.88,8.18,3.5,11.69,3.33,13-.07.54.26.69.68.69a4.58,4.58,0,0,0,1.43-.34s1-.13-.31-8c-1-5.9-5-19.93-8.12-25.37a4.89,4.89,0,0,0-1.91-2.17,3.21,3.21,0,0,0-1.09-.19Z" transform="translate(-33.89 -103.94)"/></g></g><g id="Layer_1-4" data-name="Layer 1"><path class="cls-16" d="M2039.06,132.73c-9.21,3.15-25.7,17-20.25,45.55s24.82,41,30.81,43,7.92-.67,11.44.17,9.33,2.52,11.62,1.68,3-2,7-1.85,11.09-4.37,16.72-11.26,38.14-51.78,2-76c0,0-5.76-4.52-15.74-4.09-8.46.36-11.18,4.24-19.7,3.56C2056.27,133,2050.86,128.7,2039.06,132.73Z" transform="translate(-33.89 -103.94)"/><g class="cls-5"><path class="cls-6" d="M2084,133h0c7.91,0,12.54,3.46,12.57,3.48l.18.13c8.68,5.81,13.77,13.37,15.12,22.47,1.32,8.86-.76,19.13-6.19,30.51a99.55,99.55,0,0,1-11.56,18.61c-5.13,6.28-11.36,10.17-14.18,10.17h-.1l-.87,0a11.78,11.78,0,0,0-6,1.46,12.3,12.3,0,0,1-1.29.59,2.75,2.75,0,0,1-.64.05,40.1,40.1,0,0,1-7.63-1.42l-1.64-.4a8.91,8.91,0,0,0-2.12-.25,14.84,14.84,0,0,0-3.11.41,12.54,12.54,0,0,1-2.63.36,10.37,10.37,0,0,1-3.31-.61c-4.75-1.6-23.56-13.21-28.82-40.75-2.26-11.83-.84-22,4.23-30.17,4.15-6.71,10-10.59,14-12a26,26,0,0,1,8.47-1.55,30.65,30.65,0,0,1,8,1.29,35.66,35.66,0,0,0,6.25,1.21c.74.06,1.47.09,2.18.09a27.89,27.89,0,0,0,9.63-1.87,27.49,27.49,0,0,1,8.25-1.77c.4,0,.79,0,1.18,0m0-3-1.32,0c-7.78.33-10.71,3.64-17.76,3.64-.61,0-1.26,0-1.94-.08-4.62-.37-8.62-2.51-14.49-2.51a28.93,28.93,0,0,0-9.44,1.71c-9.21,3.15-25.7,17-20.25,45.55s24.82,41,30.81,43a13.1,13.1,0,0,0,4.27.77c2.36,0,3.93-.77,5.74-.77a6.12,6.12,0,0,1,1.43.17c2.85.68,7.19,1.91,10,1.91a5,5,0,0,0,1.66-.23c2.14-.79,2.89-1.87,6.29-1.87l.75,0h.22c4.08,0,11-4.5,16.5-11.27s38.14-51.78,2-76c0,0-5.23-4.12-14.4-4.12Z" transform="translate(-33.89 -103.94)"/></g><path class="cls-17" d="M2053.77,144.46c-.83-.58-1.4-1.75-.77-2.43s4.27-.32,7.13.26c.71.18,5.79,1.57,8.7,1.46a45.76,45.76,0,0,0,7.79-1.4c3.7-.87,3.62-1.31,5.3-1.45s3.3-.13,3.53.72-.75,1.79-1.75,2.41a27.7,27.7,0,0,1-14.85,3.69C2062.46,147.59,2057.23,146.89,2053.77,144.46Z" transform="translate(-33.89 -103.94)"/><path class="cls-18" d="M2118,108.18c-3,1.35-6.5-.83-10-2.12a30.89,30.89,0,0,0-15.37-1,25.51,25.51,0,0,0-11.35,5.74c-5.86,5.12-7.63,12-8.21,14.56a7.16,7.16,0,0,1,.8,1.31l.16,0c4.36-.71,13,9.18,27.7,5.39s19.19-25.32,19.19-25.32l.12-.08S2118.64,107.89,2118,108.18Z" transform="translate(-33.89 -103.94)"/><g class="cls-5"><path class="cls-6" d="M2098.25,107.52a28.5,28.5,0,0,1,8.69,1.35c.68.25,1.37.54,2.11.85a17.92,17.92,0,0,0,6.86,1.88h.41c-2.23,6.1-6.94,15.41-15.36,17.58a23.88,23.88,0,0,1-5.92.77c-5.71,0-10.18-2.21-13.77-4a27.92,27.92,0,0,0-4.74-2,23.13,23.13,0,0,1,6.7-10.86,22.25,22.25,0,0,1,10-5.06,24.87,24.87,0,0,1,5-.5h0m24,1.89h0m-24-4.89a27.76,27.76,0,0,0-5.65.57,25.51,25.51,0,0,0-11.35,5.74c-5.86,5.12-7.63,12-8.21,14.56a7.16,7.16,0,0,1,.8,1.31l.16,0a3.59,3.59,0,0,1,.47,0c3.74,0,10.28,6.3,20.56,6.3a26.76,26.76,0,0,0,6.67-.87c14.71-3.79,19.19-25.32,19.19-25.32l.12-.08h0s-2.38,1.21-3,1.5a5,5,0,0,1-2.08.42c-2.5,0-5.2-1.54-7.93-2.55a31.45,31.45,0,0,0-9.72-1.53Z" transform="translate(-33.89 -103.94)"/></g><path class="cls-9" d="M2066.54,138.5s0-.05,0-.15.05-.21.08-.38c.09-.46.23-1.19.44-2.13a26.65,26.65,0,0,1,2.9-7.5,19,19,0,0,1,3.42-4.28,16.19,16.19,0,0,1,2.38-1.84c.43-.28.87-.53,1.35-.78l.65-.32.73-.33a19.81,19.81,0,0,1,6.22-1.55,41.07,41.07,0,0,1,6.39.13,42.93,42.93,0,0,0,6.07.18,19.88,19.88,0,0,0,5.63-1.18,40.05,40.05,0,0,0,5.08-2.21c1.57-.81,3-1.64,4.34-2.47a62.14,62.14,0,0,0,6.11-4.34c.7-.58,1.23-1,1.57-1.39a5.28,5.28,0,0,0,.5-.54l.11.08a7.34,7.34,0,0,1-.47.59c-.32.37-.82.89-1.48,1.52a54.19,54.19,0,0,1-5.88,4.78c-1.27.92-2.7,1.85-4.26,2.78a40.9,40.9,0,0,1-5.08,2.59,20,20,0,0,1-6,1.6,43.38,43.38,0,0,1-6.34.1,31.38,31.38,0,0,0-6,.19,16.8,16.8,0,0,0-5.3,1.69l-.58.3-.62.36c-.35.21-.74.44-1.08.69a12.86,12.86,0,0,0-1.9,1.6,15.66,15.66,0,0,0-2.7,3.67,22.62,22.62,0,0,0-2.2,6.63c-.15.85-.25,1.53-.32,2,0,.25-.07.45-.13.71l-.06.22Z" transform="translate(-33.89 -103.94)"/><path class="cls-10" d="M2061.92,113.23a4.89,4.89,0,0,0-1.91-2.17c-2.83-1-6.2,2.43-7,3.25C2055.88,116.54,2059.23,115,2061.92,113.23Z" transform="translate(-33.89 -103.94)"/><path class="cls-19" d="M2070,138.61c-1-5.9-5-19.93-8.12-25.37-2.69,1.74-6.05,3.31-8.87,1.08l-.16.18c6.64,7.79,9.22,10.85,12,18.82,2.88,8.18,3.5,11.69,3.33,13s2.1.35,2.1.35S2071.36,146.49,2070,138.61Z" transform="translate(-33.89 -103.94)"/><g class="cls-5"><path class="cls-6" d="M2058.93,113a1.12,1.12,0,0,1,.27,0,5.57,5.57,0,0,1,.9,1.28c1.79,3.09,4,9.4,5.63,15.24-2.39-5.78-5-9.08-10-14.91a6,6,0,0,1,3.17-1.64m0-2.1c-2.55,0-5.21,2.71-5.87,3.43l-.16.18c6.64,7.79,9.22,10.85,12,18.82,2.88,8.18,3.5,11.69,3.33,13-.07.54.26.69.68.69a4.58,4.58,0,0,0,1.43-.34s1-.13-.31-8c-1-5.9-5-19.93-8.12-25.37a4.89,4.89,0,0,0-1.91-2.17,3.21,3.21,0,0,0-1.09-.19Z" transform="translate(-33.89 -103.94)"/></g></g><g id="Layer_1-5" data-name="Layer 1"><path class="cls-20" d="M1907.15,132.45c-9.21,3.15-25.7,17-20.25,45.55s24.82,41,30.81,43,7.92-.67,11.44.17,9.33,2.52,11.62,1.68,3-2,7-1.85,11.09-4.37,16.72-11.26,38.14-51.78,2-76c0,0-5.76-4.52-15.74-4.09-8.46.36-11.18,4.24-19.7,3.56C1924.36,132.72,1919,128.42,1907.15,132.45Z" transform="translate(-33.89 -103.94)"/><g class="cls-5"><path class="cls-6" d="M1952.09,132.67h0c7.91,0,12.54,3.46,12.57,3.48l.18.13c8.68,5.81,13.77,13.37,15.12,22.47,1.32,8.86-.76,19.13-6.19,30.51a99.55,99.55,0,0,1-11.56,18.61c-5.13,6.28-11.36,10.17-14.18,10.17h-.1l-.87,0a11.78,11.78,0,0,0-6,1.46,12.3,12.3,0,0,1-1.29.59,2.75,2.75,0,0,1-.64.05,40.1,40.1,0,0,1-7.63-1.42l-1.64-.4a8.91,8.91,0,0,0-2.12-.25,14.84,14.84,0,0,0-3.11.41,12.54,12.54,0,0,1-2.63.36,10.37,10.37,0,0,1-3.31-.61c-4.75-1.6-23.56-13.21-28.82-40.75-2.26-11.83-.84-22,4.23-30.17,4.15-6.71,10-10.59,14-12a26,26,0,0,1,8.47-1.55,30.65,30.65,0,0,1,8,1.29,35.66,35.66,0,0,0,6.25,1.21c.74.06,1.47.09,2.18.09a27.89,27.89,0,0,0,9.63-1.87,27.49,27.49,0,0,1,8.25-1.77c.4,0,.79,0,1.18,0m0-3-1.32,0c-7.78.33-10.71,3.64-17.76,3.64-.61,0-1.26,0-1.94-.08-4.62-.37-8.62-2.51-14.49-2.51a28.93,28.93,0,0,0-9.44,1.71c-9.21,3.15-25.7,17-20.25,45.55s24.82,41,30.81,43a13.1,13.1,0,0,0,4.27.77c2.36,0,3.93-.77,5.74-.77a6.12,6.12,0,0,1,1.43.17c2.85.68,7.19,1.91,10,1.91a5,5,0,0,0,1.66-.23c2.14-.79,2.89-1.87,6.29-1.87l.75,0h.22c4.08,0,11-4.5,16.5-11.27s38.14-51.78,2-76c0,0-5.23-4.12-14.4-4.12Z" transform="translate(-33.89 -103.94)"/></g><path class="cls-21" d="M1921.86,144.18c-.83-.58-1.4-1.75-.77-2.43s4.27-.32,7.13.26c.71.18,5.79,1.57,8.7,1.46a45.76,45.76,0,0,0,7.79-1.4c3.7-.87,3.62-1.31,5.3-1.45s3.3-.13,3.53.72-.75,1.79-1.75,2.41a27.7,27.7,0,0,1-14.85,3.69C1930.55,147.31,1925.32,146.61,1921.86,144.18Z" transform="translate(-33.89 -103.94)"/><path class="cls-22" d="M1986.07,107.9c-3,1.35-6.5-.83-10-2.12a30.89,30.89,0,0,0-15.37-1,25.51,25.51,0,0,0-11.35,5.74c-5.86,5.12-7.63,12-8.21,14.56a7.16,7.16,0,0,1,.8,1.31l.16,0c4.36-.71,13,9.18,27.7,5.39S1989,106.48,1989,106.48l.12-.08S1986.73,107.61,1986.07,107.9Z" transform="translate(-33.89 -103.94)"/><g class="cls-5"><path class="cls-6" d="M1966.34,107.24a28.5,28.5,0,0,1,8.69,1.35c.68.25,1.37.54,2.11.85a17.92,17.92,0,0,0,6.86,1.88h.41c-2.23,6.1-6.94,15.41-15.36,17.58a23.88,23.88,0,0,1-5.92.77c-5.71,0-10.18-2.21-13.77-4a27.92,27.92,0,0,0-4.74-2,23.13,23.13,0,0,1,6.7-10.86,22.25,22.25,0,0,1,10-5.06,24.87,24.87,0,0,1,5-.5h0m24,1.89h0m-24-4.89a27.76,27.76,0,0,0-5.65.57,25.51,25.51,0,0,0-11.35,5.74c-5.86,5.12-7.63,12-8.21,14.56a7.16,7.16,0,0,1,.8,1.31l.16,0a3.59,3.59,0,0,1,.47,0c3.74,0,10.28,6.3,20.56,6.3a26.76,26.76,0,0,0,6.67-.87C1984.5,128,1989,106.48,1989,106.48l.12-.08h0s-2.38,1.21-3,1.5a5,5,0,0,1-2.08.42c-2.5,0-5.2-1.54-7.93-2.55a31.45,31.45,0,0,0-9.72-1.53Z" transform="translate(-33.89 -103.94)"/></g><path class="cls-9" d="M1934.63,138.22s0-.05,0-.15,0-.21.08-.38c.09-.46.23-1.19.44-2.13a26.65,26.65,0,0,1,2.9-7.5,19,19,0,0,1,3.42-4.28,16.19,16.19,0,0,1,2.38-1.84c.43-.28.87-.53,1.35-.78l.65-.32.73-.33a19.81,19.81,0,0,1,6.22-1.55,41.07,41.07,0,0,1,6.39.13,42.93,42.93,0,0,0,6.07.18,19.88,19.88,0,0,0,5.63-1.18,40.05,40.05,0,0,0,5.08-2.21c1.57-.81,3-1.64,4.34-2.47a62.14,62.14,0,0,0,6.11-4.34c.7-.58,1.23-1,1.57-1.39a5.28,5.28,0,0,0,.5-.54l.11.08a7.34,7.34,0,0,1-.47.59c-.32.37-.82.89-1.48,1.52a54.19,54.19,0,0,1-5.88,4.78c-1.27.92-2.7,1.85-4.26,2.78a40.9,40.9,0,0,1-5.08,2.59,20,20,0,0,1-6,1.6,43.38,43.38,0,0,1-6.34.1,31.38,31.38,0,0,0-6,.19,16.8,16.8,0,0,0-5.3,1.69l-.58.3-.62.36c-.35.21-.74.44-1.08.69a12.86,12.86,0,0,0-1.9,1.6,15.66,15.66,0,0,0-2.7,3.67,22.62,22.62,0,0,0-2.2,6.63c-.15.85-.25,1.53-.32,2,0,.25-.07.45-.13.71l-.06.22Z" transform="translate(-33.89 -103.94)"/><path class="cls-10" d="M1930,113a4.89,4.89,0,0,0-1.91-2.17c-2.83-1-6.2,2.43-7,3.25C1924,116.26,1927.32,114.69,1930,113Z" transform="translate(-33.89 -103.94)"/><path class="cls-23" d="M1938.13,138.33c-1-5.9-5-19.93-8.12-25.37-2.69,1.74-6,3.31-8.87,1.08l-.16.18c6.64,7.79,9.22,10.85,12,18.82,2.88,8.18,3.5,11.69,3.33,13s2.1.35,2.1.35S1939.45,146.21,1938.13,138.33Z" transform="translate(-33.89 -103.94)"/><g class="cls-5"><path class="cls-6" d="M1927,112.7a1.12,1.12,0,0,1,.27,0,5.57,5.57,0,0,1,.9,1.28c1.79,3.09,4,9.4,5.63,15.24-2.39-5.78-5-9.08-10-14.91a6,6,0,0,1,3.17-1.64m0-2.1c-2.55,0-5.21,2.71-5.87,3.43l-.16.18c6.64,7.79,9.22,10.85,12,18.82,2.88,8.18,3.5,11.69,3.33,13-.07.54.26.69.68.69a4.58,4.58,0,0,0,1.43-.34s1-.13-.31-8c-1-5.9-5-19.93-8.12-25.37a4.89,4.89,0,0,0-1.91-2.17,3.21,3.21,0,0,0-1.09-.19Z" transform="translate(-33.89 -103.94)"/></g></g><g id="Layer_1-6" data-name="Layer 1"><path class="cls-24" d="M1775.24,132.45c-9.21,3.15-25.7,17-20.25,45.55s24.82,41,30.81,43,7.92-.67,11.44.17,9.33,2.52,11.62,1.68,3-2,7-1.85,11.09-4.37,16.72-11.26,38.14-51.78,2-76c0,0-5.76-4.52-15.74-4.09-8.46.36-11.18,4.24-19.7,3.56C1792.45,132.72,1787,128.42,1775.24,132.45Z" transform="translate(-33.89 -103.94)"/><g class="cls-5"><path class="cls-6" d="M1820.18,132.67h0c7.91,0,12.54,3.46,12.57,3.48l.18.13c8.68,5.81,13.77,13.37,15.12,22.47,1.32,8.86-.76,19.13-6.19,30.51a99.55,99.55,0,0,1-11.56,18.61c-5.13,6.28-11.36,10.17-14.18,10.17h-.1l-.87,0a11.78,11.78,0,0,0-6,1.46,12.3,12.3,0,0,1-1.29.59,2.75,2.75,0,0,1-.64.05,40.1,40.1,0,0,1-7.63-1.42l-1.64-.4a8.91,8.91,0,0,0-2.12-.25,14.84,14.84,0,0,0-3.11.41,12.54,12.54,0,0,1-2.63.36,10.37,10.37,0,0,1-3.31-.61c-4.75-1.6-23.56-13.21-28.82-40.75-2.26-11.83-.84-22,4.23-30.17,4.15-6.71,10-10.59,14-12a26,26,0,0,1,8.47-1.55,30.65,30.65,0,0,1,8,1.29,35.66,35.66,0,0,0,6.25,1.21c.74.06,1.47.09,2.18.09a27.89,27.89,0,0,0,9.63-1.87,27.49,27.49,0,0,1,8.25-1.77c.4,0,.79,0,1.18,0m0-3-1.32,0c-7.78.33-10.71,3.64-17.76,3.64-.61,0-1.26,0-1.94-.08-4.62-.37-8.62-2.51-14.49-2.51a28.93,28.93,0,0,0-9.44,1.71c-9.21,3.15-25.7,17-20.25,45.55s24.82,41,30.81,43a13.1,13.1,0,0,0,4.27.77c2.36,0,3.93-.77,5.74-.77a6.12,6.12,0,0,1,1.43.17c2.85.68,7.19,1.91,10,1.91a5,5,0,0,0,1.66-.23c2.14-.79,2.89-1.87,6.29-1.87l.75,0h.22c4.08,0,11-4.5,16.5-11.27s38.14-51.78,2-76c0,0-5.23-4.12-14.4-4.12Z" transform="translate(-33.89 -103.94)"/></g><path class="cls-25" d="M1790,144.18c-.83-.58-1.4-1.75-.77-2.43s4.27-.32,7.13.26c.71.18,5.79,1.57,8.7,1.46a45.76,45.76,0,0,0,7.79-1.4c3.7-.87,3.62-1.31,5.3-1.45s3.3-.13,3.53.72-.75,1.79-1.75,2.41a27.7,27.7,0,0,1-14.85,3.69C1798.64,147.31,1793.41,146.61,1790,144.18Z" transform="translate(-33.89 -103.94)"/><path class="cls-26" d="M1854.16,107.9c-3,1.35-6.5-.83-10-2.12a30.89,30.89,0,0,0-15.37-1,25.51,25.51,0,0,0-11.35,5.74c-5.86,5.12-7.63,12-8.21,14.56a7.16,7.16,0,0,1,.8,1.31l.16,0c4.36-.71,13,9.18,27.7,5.39s19.19-25.32,19.19-25.32l.12-.08S1854.82,107.61,1854.16,107.9Z" transform="translate(-33.89 -103.94)"/><g class="cls-5"><path class="cls-6" d="M1834.43,107.24a28.5,28.5,0,0,1,8.69,1.35c.68.25,1.37.54,2.11.85a17.92,17.92,0,0,0,6.86,1.88h.41c-2.23,6.1-6.94,15.41-15.36,17.58a23.88,23.88,0,0,1-5.92.77c-5.71,0-10.18-2.21-13.77-4a27.92,27.92,0,0,0-4.74-2,23.13,23.13,0,0,1,6.7-10.86,22.25,22.25,0,0,1,10-5.06,24.87,24.87,0,0,1,5-.5h0m24,1.89h0m-24-4.89a27.76,27.76,0,0,0-5.65.57,25.51,25.51,0,0,0-11.35,5.74c-5.86,5.12-7.63,12-8.21,14.56a7.16,7.16,0,0,1,.8,1.31l.16,0a3.59,3.59,0,0,1,.47,0c3.74,0,10.28,6.3,20.56,6.3a26.76,26.76,0,0,0,6.67-.87c14.71-3.79,19.19-25.32,19.19-25.32l.12-.08h0s-2.38,1.21-3,1.5a5,5,0,0,1-2.08.42c-2.5,0-5.2-1.54-7.93-2.55a31.45,31.45,0,0,0-9.72-1.53Z" transform="translate(-33.89 -103.94)"/></g><path class="cls-9" d="M1802.72,138.22s0-.05,0-.15,0-.21.08-.38c.09-.46.23-1.19.44-2.13a26.65,26.65,0,0,1,2.9-7.5,19,19,0,0,1,3.42-4.28,16.19,16.19,0,0,1,2.38-1.84c.43-.28.87-.53,1.35-.78l.65-.32.73-.33a19.81,19.81,0,0,1,6.22-1.55,41.07,41.07,0,0,1,6.39.13,42.93,42.93,0,0,0,6.07.18,19.88,19.88,0,0,0,5.63-1.18,40.05,40.05,0,0,0,5.08-2.21c1.57-.81,3-1.64,4.34-2.47a62.14,62.14,0,0,0,6.11-4.34c.7-.58,1.23-1,1.57-1.39a5.28,5.28,0,0,0,.5-.54l.11.08a7.34,7.34,0,0,1-.47.59c-.32.37-.82.89-1.48,1.52a54.19,54.19,0,0,1-5.88,4.78c-1.27.92-2.7,1.85-4.26,2.78a40.9,40.9,0,0,1-5.08,2.59,20,20,0,0,1-6,1.6,43.38,43.38,0,0,1-6.34.1,31.38,31.38,0,0,0-6,.19,16.8,16.8,0,0,0-5.3,1.69l-.58.3-.62.36c-.35.21-.74.44-1.08.69a12.86,12.86,0,0,0-1.9,1.6,15.66,15.66,0,0,0-2.7,3.67,22.62,22.62,0,0,0-2.2,6.63c-.15.85-.25,1.53-.32,2,0,.25-.07.45-.13.71l-.06.22Z" transform="translate(-33.89 -103.94)"/><path class="cls-10" d="M1798.1,113a4.89,4.89,0,0,0-1.91-2.17c-2.83-1-6.2,2.43-7,3.25C1792.06,116.26,1795.41,114.69,1798.1,113Z" transform="translate(-33.89 -103.94)"/><path class="cls-27" d="M1806.22,138.33c-1-5.9-5-19.93-8.12-25.37-2.69,1.74-6,3.31-8.87,1.08l-.16.18c6.64,7.79,9.22,10.85,12,18.82,2.88,8.18,3.5,11.69,3.33,13s2.1.35,2.1.35S1807.54,146.21,1806.22,138.33Z" transform="translate(-33.89 -103.94)"/><g class="cls-5"><path class="cls-6" d="M1795.11,112.7a1.12,1.12,0,0,1,.27,0,5.57,5.57,0,0,1,.9,1.28c1.79,3.09,4,9.4,5.63,15.24-2.39-5.78-5-9.08-10-14.91a6,6,0,0,1,3.17-1.64m0-2.1c-2.55,0-5.21,2.71-5.87,3.43l-.16.18c6.64,7.79,9.22,10.85,12,18.82,2.88,8.18,3.5,11.69,3.33,13-.07.54.26.69.68.69a4.58,4.58,0,0,0,1.43-.34s1-.13-.31-8c-1-5.9-5-19.93-8.12-25.37a4.89,4.89,0,0,0-1.91-2.17,3.21,3.21,0,0,0-1.09-.19Z" transform="translate(-33.89 -103.94)"/></g></g><g id="Layer_1-7" data-name="Layer 1"><path class="cls-28" d="M1643.33,132.45c-9.21,3.15-25.7,17-20.25,45.55s24.82,41,30.81,43,7.92-.67,11.44.17,9.33,2.52,11.62,1.68,3-2,7-1.85,11.09-4.37,16.72-11.26,38.14-51.78,2-76c0,0-5.76-4.52-15.74-4.09-8.46.36-11.18,4.24-19.7,3.56C1660.54,132.72,1655.13,128.42,1643.33,132.45Z" transform="translate(-33.89 -103.94)"/><g class="cls-5"><path class="cls-6" d="M1688.27,132.67h0c7.91,0,12.54,3.46,12.57,3.48l.18.13c8.68,5.81,13.77,13.37,15.12,22.47,1.32,8.86-.76,19.13-6.19,30.51a99.55,99.55,0,0,1-11.56,18.61c-5.13,6.28-11.36,10.17-14.18,10.17h-.1l-.87,0a11.78,11.78,0,0,0-6,1.46,12.3,12.3,0,0,1-1.29.59,2.75,2.75,0,0,1-.64.05,40.1,40.1,0,0,1-7.63-1.42l-1.64-.4a8.91,8.91,0,0,0-2.12-.25,14.84,14.84,0,0,0-3.11.41,12.54,12.54,0,0,1-2.63.36,10.37,10.37,0,0,1-3.31-.61c-4.75-1.6-23.56-13.21-28.82-40.75-2.26-11.83-.84-22,4.23-30.17,4.15-6.71,10-10.59,14-12a26,26,0,0,1,8.47-1.55,30.65,30.65,0,0,1,8,1.29,35.66,35.66,0,0,0,6.25,1.21c.74.06,1.47.09,2.18.09a27.89,27.89,0,0,0,9.63-1.87,27.49,27.49,0,0,1,8.25-1.77c.4,0,.79,0,1.18,0m0-3-1.32,0c-7.78.33-10.71,3.64-17.76,3.64-.61,0-1.26,0-1.94-.08-4.62-.37-8.62-2.51-14.49-2.51a28.93,28.93,0,0,0-9.44,1.71c-9.21,3.15-25.7,17-20.25,45.55s24.82,41,30.81,43a13.1,13.1,0,0,0,4.27.77c2.36,0,3.93-.77,5.74-.77a6.12,6.12,0,0,1,1.43.17c2.85.68,7.19,1.91,10,1.91a5,5,0,0,0,1.66-.23c2.14-.79,2.89-1.87,6.29-1.87l.75,0h.22c4.08,0,11-4.5,16.5-11.27s38.14-51.78,2-76c0,0-5.23-4.12-14.4-4.12Z" transform="translate(-33.89 -103.94)"/></g><path class="cls-29" d="M1658,144.18c-.83-.58-1.4-1.75-.77-2.43s4.27-.32,7.13.26c.71.18,5.79,1.57,8.7,1.46a45.76,45.76,0,0,0,7.79-1.4c3.7-.87,3.62-1.31,5.3-1.45s3.3-.13,3.53.72-.75,1.79-1.75,2.41a27.7,27.7,0,0,1-14.85,3.69C1666.73,147.31,1661.5,146.61,1658,144.18Z" transform="translate(-33.89 -103.94)"/><path class="cls-30" d="M1722.25,107.9c-3,1.35-6.5-.83-10-2.12a30.89,30.89,0,0,0-15.37-1,25.51,25.51,0,0,0-11.35,5.74c-5.86,5.12-7.63,12-8.21,14.56a7.16,7.16,0,0,1,.8,1.31l.16,0c4.36-.71,13,9.18,27.7,5.39s19.19-25.32,19.19-25.32l.12-.08S1722.91,107.61,1722.25,107.9Z" transform="translate(-33.89 -103.94)"/><g class="cls-5"><path class="cls-6" d="M1702.52,107.24a28.5,28.5,0,0,1,8.69,1.35c.68.25,1.37.54,2.11.85a17.92,17.92,0,0,0,6.86,1.88h.41c-2.23,6.1-6.94,15.41-15.36,17.58a23.88,23.88,0,0,1-5.92.77c-5.71,0-10.18-2.21-13.77-4a27.92,27.92,0,0,0-4.74-2,23.13,23.13,0,0,1,6.7-10.86,22.25,22.25,0,0,1,10-5.06,24.87,24.87,0,0,1,5-.5h0m24,1.89h0m-24-4.89a27.76,27.76,0,0,0-5.65.57,25.51,25.51,0,0,0-11.35,5.74c-5.86,5.12-7.63,12-8.21,14.56a7.16,7.16,0,0,1,.8,1.31l.16,0a3.59,3.59,0,0,1,.47,0c3.74,0,10.28,6.3,20.56,6.3a26.76,26.76,0,0,0,6.67-.87c14.71-3.79,19.19-25.32,19.19-25.32l.12-.08h0s-2.38,1.21-3,1.5a5,5,0,0,1-2.08.42c-2.5,0-5.2-1.54-7.93-2.55a31.45,31.45,0,0,0-9.72-1.53Z" transform="translate(-33.89 -103.94)"/></g><path class="cls-9" d="M1670.81,138.22s0-.05,0-.15.05-.21.08-.38c.09-.46.23-1.19.44-2.13a26.65,26.65,0,0,1,2.9-7.5,19,19,0,0,1,3.42-4.28,16.19,16.19,0,0,1,2.38-1.84c.43-.28.87-.53,1.35-.78l.65-.32.73-.33A19.81,19.81,0,0,1,1689,119a41.07,41.07,0,0,1,6.39.13,42.93,42.93,0,0,0,6.07.18,19.88,19.88,0,0,0,5.63-1.18,40.05,40.05,0,0,0,5.08-2.21c1.57-.81,3-1.64,4.34-2.47a62.14,62.14,0,0,0,6.11-4.34c.7-.58,1.23-1,1.57-1.39a5.28,5.28,0,0,0,.5-.54l.11.08a7.34,7.34,0,0,1-.47.59c-.32.37-.82.89-1.48,1.52a54.19,54.19,0,0,1-5.88,4.78c-1.27.92-2.7,1.85-4.26,2.78a40.9,40.9,0,0,1-5.08,2.59,20,20,0,0,1-6,1.6,43.38,43.38,0,0,1-6.34.1,31.38,31.38,0,0,0-6,.19,16.8,16.8,0,0,0-5.3,1.69l-.58.3-.62.36c-.35.21-.74.44-1.08.69a12.86,12.86,0,0,0-1.9,1.6,15.66,15.66,0,0,0-2.7,3.67,22.62,22.62,0,0,0-2.2,6.63c-.15.85-.25,1.53-.32,2,0,.25-.07.45-.13.71l-.06.22Z" transform="translate(-33.89 -103.94)"/><path class="cls-10" d="M1666.19,113a4.89,4.89,0,0,0-1.91-2.17c-2.83-1-6.2,2.43-7,3.25C1660.15,116.26,1663.5,114.69,1666.19,113Z" transform="translate(-33.89 -103.94)"/><path class="cls-31" d="M1674.31,138.33c-1-5.9-5-19.93-8.12-25.37-2.69,1.74-6,3.31-8.87,1.08l-.16.18c6.64,7.79,9.22,10.85,12,18.82,2.88,8.18,3.5,11.69,3.33,13s2.1.35,2.1.35S1675.63,146.21,1674.31,138.33Z" transform="translate(-33.89 -103.94)"/><g class="cls-5"><path class="cls-6" d="M1663.2,112.7a1.12,1.12,0,0,1,.27,0,5.57,5.57,0,0,1,.9,1.28c1.79,3.09,4,9.4,5.63,15.24-2.39-5.78-5-9.08-10-14.91a6,6,0,0,1,3.17-1.64m0-2.1c-2.55,0-5.21,2.71-5.87,3.43l-.16.18c6.64,7.79,9.22,10.85,12,18.82,2.88,8.18,3.5,11.69,3.33,13-.07.54.26.69.68.69a4.58,4.58,0,0,0,1.43-.34s1-.13-.31-8c-1-5.9-5-19.93-8.12-25.37a4.89,4.89,0,0,0-1.91-2.17,3.21,3.21,0,0,0-1.09-.19Z" transform="translate(-33.89 -103.94)"/></g></g><g id="Layer_1-8" data-name="Layer 1"><path class="cls-32" d="M193,132.45c-9.21,3.15-25.7,17-20.25,45.55s24.82,41,30.81,43,7.92-.67,11.44.17,9.33,2.52,11.62,1.68,3-2,7-1.85,11.09-4.37,16.72-11.26,38.14-51.78,2-76c0,0-5.76-4.52-15.74-4.09-8.46.36-11.18,4.24-19.7,3.56C210.17,132.72,204.76,128.42,193,132.45Z" transform="translate(-33.89 -103.94)"/><g class="cls-5"><path class="cls-6" d="M237.9,132.67h0c7.91,0,12.54,3.46,12.57,3.48l.18.13c8.68,5.81,13.77,13.37,15.12,22.47,1.32,8.86-.76,19.13-6.19,30.51A99.55,99.55,0,0,1,248,207.87c-5.13,6.28-11.36,10.17-14.18,10.17h-.1l-.87,0a11.78,11.78,0,0,0-6,1.46,12.3,12.3,0,0,1-1.29.59,2.75,2.75,0,0,1-.64.05,40.1,40.1,0,0,1-7.63-1.42l-1.64-.4a8.91,8.91,0,0,0-2.12-.25,14.84,14.84,0,0,0-3.11.41,12.54,12.54,0,0,1-2.63.36,10.37,10.37,0,0,1-3.31-.61c-4.75-1.6-23.56-13.21-28.82-40.75-2.26-11.83-.84-22,4.23-30.17,4.15-6.71,10-10.59,14-12a26,26,0,0,1,8.47-1.55,30.65,30.65,0,0,1,8,1.29,35.66,35.66,0,0,0,6.25,1.21c.74.06,1.47.09,2.18.09a27.89,27.89,0,0,0,9.63-1.87,27.49,27.49,0,0,1,8.25-1.77c.4,0,.79,0,1.18,0m0-3-1.32,0c-7.78.33-10.71,3.64-17.76,3.64-.61,0-1.26,0-1.94-.08-4.62-.37-8.62-2.51-14.49-2.51a28.93,28.93,0,0,0-9.44,1.71c-9.21,3.15-25.7,17-20.25,45.55s24.82,41,30.81,43a13.1,13.1,0,0,0,4.27.77c2.36,0,3.93-.77,5.74-.77a6.12,6.12,0,0,1,1.43.17c2.85.68,7.19,1.91,10,1.91a5,5,0,0,0,1.66-.23c2.14-.79,2.89-1.87,6.29-1.87l.75,0h.22c4.08,0,11-4.5,16.5-11.27s38.14-51.78,2-76c0,0-5.23-4.12-14.4-4.12Z" transform="translate(-33.89 -103.94)"/></g><path class="cls-33" d="M207.67,144.18c-.83-.58-1.4-1.75-.77-2.43s4.27-.32,7.13.26c.71.18,5.79,1.57,8.7,1.46a45.76,45.76,0,0,0,7.79-1.4c3.7-.87,3.62-1.31,5.3-1.45s3.3-.13,3.53.72-.75,1.79-1.75,2.41a27.7,27.7,0,0,1-14.85,3.69C216.36,147.31,211.13,146.61,207.67,144.18Z" transform="translate(-33.89 -103.94)"/><path class="cls-34" d="M271.88,107.9c-3,1.35-6.5-.83-10-2.12a30.89,30.89,0,0,0-15.37-1,25.51,25.51,0,0,0-11.35,5.74c-5.86,5.12-7.63,12-8.21,14.56a7.16,7.16,0,0,1,.8,1.31l.16,0c4.36-.71,13,9.18,27.7,5.39s19.19-25.32,19.19-25.32l.12-.08S272.54,107.61,271.88,107.9Z" transform="translate(-33.89 -103.94)"/><g class="cls-5"><path class="cls-6" d="M252.15,107.24a28.5,28.5,0,0,1,8.69,1.35c.68.25,1.37.54,2.11.85a17.92,17.92,0,0,0,6.86,1.88h.41c-2.23,6.1-6.94,15.41-15.36,17.58a23.88,23.88,0,0,1-5.92.77c-5.71,0-10.18-2.21-13.77-4a27.92,27.92,0,0,0-4.74-2,23.13,23.13,0,0,1,6.7-10.86,22.25,22.25,0,0,1,10-5.06,24.87,24.87,0,0,1,5-.5h0m24,1.89h0m-24-4.89a27.76,27.76,0,0,0-5.65.57,25.51,25.51,0,0,0-11.35,5.74c-5.86,5.12-7.63,12-8.21,14.56a7.16,7.16,0,0,1,.8,1.31l.16,0a3.59,3.59,0,0,1,.47,0c3.74,0,10.28,6.3,20.56,6.3a26.76,26.76,0,0,0,6.67-.87c14.71-3.79,19.19-25.32,19.19-25.32l.12-.08h0s-2.38,1.21-3,1.5a5,5,0,0,1-2.08.42c-2.5,0-5.2-1.54-7.93-2.55a31.45,31.45,0,0,0-9.72-1.53Z" transform="translate(-33.89 -103.94)"/></g><path class="cls-9" d="M220.44,138.22s0-.05,0-.15.05-.21.08-.38c.09-.46.23-1.19.44-2.13a26.65,26.65,0,0,1,2.9-7.5,19,19,0,0,1,3.42-4.28,16.19,16.19,0,0,1,2.38-1.84c.43-.28.87-.53,1.35-.78l.65-.32.73-.33a19.81,19.81,0,0,1,6.22-1.55,41.07,41.07,0,0,1,6.39.13,42.93,42.93,0,0,0,6.07.18,19.88,19.88,0,0,0,5.63-1.18,40.05,40.05,0,0,0,5.08-2.21c1.57-.81,3-1.64,4.34-2.47a62.14,62.14,0,0,0,6.11-4.34c.7-.58,1.23-1,1.57-1.39a5.28,5.28,0,0,0,.5-.54l.11.08a7.34,7.34,0,0,1-.47.59c-.32.37-.82.89-1.48,1.52a54.19,54.19,0,0,1-5.88,4.78c-1.27.92-2.7,1.85-4.26,2.78a40.9,40.9,0,0,1-5.08,2.59,20,20,0,0,1-6,1.6,43.38,43.38,0,0,1-6.34.1,31.38,31.38,0,0,0-6,.19,16.8,16.8,0,0,0-5.3,1.69l-.58.3-.62.36c-.35.21-.74.44-1.08.69a12.86,12.86,0,0,0-1.9,1.6,15.66,15.66,0,0,0-2.7,3.67,22.62,22.62,0,0,0-2.2,6.63c-.15.85-.25,1.53-.32,2,0,.25-.07.45-.13.71l-.06.22Z" transform="translate(-33.89 -103.94)"/><path class="cls-10" d="M215.82,113a4.89,4.89,0,0,0-1.91-2.17c-2.83-1-6.2,2.43-7,3.25C209.78,116.26,213.13,114.69,215.82,113Z" transform="translate(-33.89 -103.94)"/><path class="cls-35" d="M223.94,138.33c-1-5.9-5-19.93-8.12-25.37-2.69,1.74-6,3.31-8.87,1.08l-.16.18c6.64,7.79,9.22,10.85,12,18.82,2.88,8.18,3.5,11.69,3.33,13s2.1.35,2.1.35S225.26,146.21,223.94,138.33Z" transform="translate(-33.89 -103.94)"/><g class="cls-5"><path class="cls-6" d="M212.83,112.7a1.12,1.12,0,0,1,.27,0A5.57,5.57,0,0,1,214,114c1.79,3.09,4,9.4,5.63,15.24-2.39-5.78-5-9.08-10-14.91a6,6,0,0,1,3.17-1.64m0-2.1c-2.55,0-5.21,2.71-5.87,3.43l-.16.18c6.64,7.79,9.22,10.85,12,18.82,2.88,8.18,3.5,11.69,3.33,13-.07.54.26.69.68.69a4.58,4.58,0,0,0,1.43-.34s1-.13-.31-8c-1-5.9-5-19.93-8.12-25.37a4.89,4.89,0,0,0-1.91-2.17,3.21,3.21,0,0,0-1.09-.19Z" transform="translate(-33.89 -103.94)"/></g></g><g id="Layer_1-9" data-name="Layer 1"><path class="cls-36" d="M330.68,132.45c-9.21,3.15-25.7,17-20.25,45.55s24.82,41,30.81,43,7.92-.67,11.44.17,9.33,2.52,11.62,1.68,3-2,7-1.85,11.09-4.37,16.72-11.26,38.14-51.78,2-76c0,0-5.76-4.52-15.74-4.09-8.46.36-11.18,4.24-19.7,3.56C347.89,132.72,342.48,128.42,330.68,132.45Z" transform="translate(-33.89 -103.94)"/><g class="cls-5"><path class="cls-6" d="M375.62,132.67h0c7.91,0,12.54,3.46,12.57,3.48l.18.13c8.68,5.81,13.77,13.37,15.12,22.47,1.32,8.86-.76,19.13-6.19,30.51a99.55,99.55,0,0,1-11.56,18.61c-5.13,6.28-11.36,10.17-14.18,10.17h-.1l-.87,0a11.78,11.78,0,0,0-6,1.46,12.3,12.3,0,0,1-1.29.59,2.75,2.75,0,0,1-.64.05A40.1,40.1,0,0,1,355,218.7l-1.64-.4a8.91,8.91,0,0,0-2.12-.25,14.84,14.84,0,0,0-3.11.41,12.54,12.54,0,0,1-2.63.36,10.37,10.37,0,0,1-3.31-.61c-4.75-1.6-23.56-13.21-28.82-40.75-2.26-11.83-.84-22,4.23-30.17,4.15-6.71,10-10.59,14-12a26,26,0,0,1,8.47-1.55,30.65,30.65,0,0,1,8,1.29,35.66,35.66,0,0,0,6.25,1.21c.74.06,1.47.09,2.18.09a27.89,27.89,0,0,0,9.63-1.87,27.49,27.49,0,0,1,8.25-1.77c.4,0,.79,0,1.18,0m0-3-1.32,0c-7.78.33-10.71,3.64-17.76,3.64-.61,0-1.26,0-1.94-.08-4.62-.37-8.62-2.51-14.49-2.51a28.93,28.93,0,0,0-9.44,1.71c-9.21,3.15-25.7,17-20.25,45.55s24.82,41,30.81,43a13.1,13.1,0,0,0,4.27.77c2.36,0,3.93-.77,5.74-.77a6.12,6.12,0,0,1,1.43.17c2.85.68,7.19,1.91,10,1.91a5,5,0,0,0,1.66-.23c2.14-.79,2.89-1.87,6.29-1.87l.75,0h.22c4.08,0,11-4.5,16.5-11.27s38.14-51.78,2-76c0,0-5.23-4.12-14.4-4.12Z" transform="translate(-33.89 -103.94)"/></g><path class="cls-37" d="M345.39,144.18c-.83-.58-1.4-1.75-.77-2.43s4.27-.32,7.13.26c.71.18,5.79,1.57,8.7,1.46a45.76,45.76,0,0,0,7.79-1.4c3.7-.87,3.62-1.31,5.3-1.45s3.3-.13,3.53.72-.75,1.79-1.75,2.41a27.7,27.7,0,0,1-14.85,3.69C354.08,147.31,348.85,146.61,345.39,144.18Z" transform="translate(-33.89 -103.94)"/><path class="cls-38" d="M409.6,107.9c-3,1.35-6.5-.83-10-2.12a30.89,30.89,0,0,0-15.37-1,25.51,25.51,0,0,0-11.35,5.74c-5.86,5.12-7.63,12-8.21,14.56a7.16,7.16,0,0,1,.8,1.31l.16,0c4.36-.71,13,9.18,27.7,5.39s19.19-25.32,19.19-25.32l.12-.08S410.26,107.61,409.6,107.9Z" transform="translate(-33.89 -103.94)"/><g class="cls-5"><path class="cls-6" d="M389.87,107.24a28.5,28.5,0,0,1,8.69,1.35c.68.25,1.37.54,2.11.85a17.92,17.92,0,0,0,6.86,1.88h.41c-2.23,6.1-6.94,15.41-15.36,17.58a23.88,23.88,0,0,1-5.92.77c-5.71,0-10.18-2.21-13.77-4a27.92,27.92,0,0,0-4.74-2,23.13,23.13,0,0,1,6.7-10.86,22.25,22.25,0,0,1,10-5.06,24.87,24.87,0,0,1,5-.5h0m24,1.89h0m-24-4.89a27.76,27.76,0,0,0-5.65.57,25.51,25.51,0,0,0-11.35,5.74c-5.86,5.12-7.63,12-8.21,14.56a7.16,7.16,0,0,1,.8,1.31l.16,0a3.59,3.59,0,0,1,.47,0c3.74,0,10.28,6.3,20.56,6.3a26.76,26.76,0,0,0,6.67-.87c14.71-3.79,19.19-25.32,19.19-25.32l.12-.08h0s-2.38,1.21-3,1.5a5,5,0,0,1-2.08.42c-2.5,0-5.2-1.54-7.93-2.55a31.45,31.45,0,0,0-9.72-1.53Z" transform="translate(-33.89 -103.94)"/></g><path class="cls-9" d="M358.16,138.22s0-.05,0-.15.05-.21.08-.38c.09-.46.23-1.19.44-2.13a26.65,26.65,0,0,1,2.9-7.5,19,19,0,0,1,3.42-4.28,16.19,16.19,0,0,1,2.38-1.84c.43-.28.87-.53,1.35-.78l.65-.32.73-.33a19.81,19.81,0,0,1,6.22-1.55,41.07,41.07,0,0,1,6.39.13,42.93,42.93,0,0,0,6.07.18,19.88,19.88,0,0,0,5.63-1.18,40.05,40.05,0,0,0,5.08-2.21c1.57-.81,3-1.64,4.34-2.47a62.14,62.14,0,0,0,6.11-4.34c.7-.58,1.23-1,1.57-1.39a5.28,5.28,0,0,0,.5-.54l.11.08a7.34,7.34,0,0,1-.47.59c-.32.37-.82.89-1.48,1.52a54.19,54.19,0,0,1-5.88,4.78c-1.27.92-2.7,1.85-4.26,2.78a40.9,40.9,0,0,1-5.08,2.59,20,20,0,0,1-6,1.6,43.38,43.38,0,0,1-6.34.1,31.38,31.38,0,0,0-6,.19,16.8,16.8,0,0,0-5.3,1.69l-.58.3-.62.36c-.35.21-.74.44-1.08.69a12.86,12.86,0,0,0-1.9,1.6,15.66,15.66,0,0,0-2.7,3.67,22.62,22.62,0,0,0-2.2,6.63c-.15.85-.25,1.53-.32,2,0,.25-.07.45-.13.71l-.06.22Z" transform="translate(-33.89 -103.94)"/><path class="cls-10" d="M353.54,113a4.89,4.89,0,0,0-1.91-2.17c-2.83-1-6.2,2.43-7,3.25C347.5,116.26,350.85,114.69,353.54,113Z" transform="translate(-33.89 -103.94)"/><path class="cls-39" d="M361.66,138.33c-1-5.9-5-19.93-8.12-25.37-2.69,1.74-6.05,3.31-8.87,1.08l-.16.18c6.64,7.79,9.22,10.85,12,18.82,2.88,8.18,3.5,11.69,3.33,13s2.1.35,2.1.35S363,146.21,361.66,138.33Z" transform="translate(-33.89 -103.94)"/><g class="cls-5"><path class="cls-6" d="M350.55,112.7a1.12,1.12,0,0,1,.27,0,5.57,5.57,0,0,1,.9,1.28c1.79,3.09,4,9.4,5.63,15.24-2.39-5.78-5-9.08-10-14.91a6,6,0,0,1,3.17-1.64m0-2.1c-2.55,0-5.21,2.71-5.87,3.43l-.16.18c6.64,7.79,9.22,10.85,12,18.82,2.88,8.18,3.5,11.69,3.33,13-.07.54.26.69.68.69a4.58,4.58,0,0,0,1.43-.34s1-.13-.31-8c-1-5.9-5-19.93-8.12-25.37a4.89,4.89,0,0,0-1.91-2.17,3.21,3.21,0,0,0-1.09-.19Z" transform="translate(-33.89 -103.94)"/></g></g><g id="Layer_1-10" data-name="Layer 1"><path class="cls-40" d="M468.4,132.45c-9.21,3.15-25.7,17-20.25,45.55S473,219,479,221s7.92-.67,11.44.17,9.33,2.52,11.62,1.68,3-2,7-1.85,11.09-4.37,16.72-11.26,38.14-51.78,2-76c0,0-5.76-4.52-15.74-4.09-8.46.36-11.18,4.24-19.7,3.56C485.61,132.72,480.2,128.42,468.4,132.45Z" transform="translate(-33.89 -103.94)"/><g class="cls-5"><path class="cls-6" d="M513.34,132.67h0c7.91,0,12.54,3.46,12.57,3.48l.18.13c8.68,5.81,13.77,13.37,15.12,22.47,1.32,8.86-.76,19.13-6.19,30.51a99.55,99.55,0,0,1-11.56,18.61C518.33,214.15,512.1,218,509.28,218h-.1l-.87,0a11.78,11.78,0,0,0-6,1.46,12.3,12.3,0,0,1-1.29.59,2.75,2.75,0,0,1-.64.05,40.1,40.1,0,0,1-7.63-1.42l-1.64-.4a8.91,8.91,0,0,0-2.12-.25,14.84,14.84,0,0,0-3.11.41,12.54,12.54,0,0,1-2.63.36,10.37,10.37,0,0,1-3.31-.61c-4.75-1.6-23.56-13.21-28.82-40.75-2.26-11.83-.84-22,4.23-30.17,4.15-6.71,10-10.59,14-12a26,26,0,0,1,8.47-1.55,30.65,30.65,0,0,1,8,1.29,35.66,35.66,0,0,0,6.25,1.21c.74.06,1.47.09,2.18.09a27.89,27.89,0,0,0,9.63-1.87,27.49,27.49,0,0,1,8.25-1.77c.4,0,.79,0,1.18,0m0-3-1.32,0c-7.78.33-10.71,3.64-17.76,3.64-.61,0-1.26,0-1.94-.08-4.62-.37-8.62-2.51-14.49-2.51a28.93,28.93,0,0,0-9.44,1.71c-9.21,3.15-25.7,17-20.25,45.55S473,219,479,221a13.1,13.1,0,0,0,4.27.77c2.36,0,3.93-.77,5.74-.77a6.12,6.12,0,0,1,1.43.17c2.85.68,7.19,1.91,10,1.91a5,5,0,0,0,1.66-.23c2.14-.79,2.89-1.87,6.29-1.87l.75,0h.22c4.08,0,11-4.5,16.5-11.27s38.14-51.78,2-76c0,0-5.23-4.12-14.4-4.12Z" transform="translate(-33.89 -103.94)"/></g><path class="cls-41" d="M483.11,144.18c-.83-.58-1.4-1.75-.77-2.43s4.27-.32,7.13.26c.71.18,5.79,1.57,8.7,1.46a45.76,45.76,0,0,0,7.79-1.4c3.7-.87,3.62-1.31,5.3-1.45s3.3-.13,3.53.72-.75,1.79-1.75,2.41a27.7,27.7,0,0,1-14.85,3.69C491.8,147.31,486.57,146.61,483.11,144.18Z" transform="translate(-33.89 -103.94)"/><path class="cls-42" d="M547.32,107.9c-3,1.35-6.5-.83-10-2.12a30.89,30.89,0,0,0-15.37-1,25.51,25.51,0,0,0-11.35,5.74c-5.86,5.12-7.63,12-8.21,14.56a7.16,7.16,0,0,1,.8,1.31l.16,0c4.36-.71,13,9.18,27.7,5.39s19.19-25.32,19.19-25.32l.12-.08S548,107.61,547.32,107.9Z" transform="translate(-33.89 -103.94)"/><g class="cls-5"><path class="cls-6" d="M527.59,107.24a28.5,28.5,0,0,1,8.69,1.35c.68.25,1.37.54,2.11.85a17.92,17.92,0,0,0,6.86,1.88h.41c-2.23,6.1-6.94,15.41-15.36,17.58a23.88,23.88,0,0,1-5.92.77c-5.71,0-10.18-2.21-13.77-4a27.92,27.92,0,0,0-4.74-2,23.13,23.13,0,0,1,6.7-10.86,22.25,22.25,0,0,1,10-5.06,24.87,24.87,0,0,1,5-.5h0m24,1.89h0m-24-4.89a27.76,27.76,0,0,0-5.65.57,25.51,25.51,0,0,0-11.35,5.74c-5.86,5.12-7.63,12-8.21,14.56a7.16,7.16,0,0,1,.8,1.31l.16,0a3.59,3.59,0,0,1,.47,0c3.74,0,10.28,6.3,20.56,6.3a26.76,26.76,0,0,0,6.67-.87c14.71-3.79,19.19-25.32,19.19-25.32l.12-.08h0s-2.38,1.21-3,1.5a5,5,0,0,1-2.08.42c-2.5,0-5.2-1.54-7.93-2.55a31.45,31.45,0,0,0-9.72-1.53Z" transform="translate(-33.89 -103.94)"/></g><path class="cls-9" d="M495.88,138.22s0-.05,0-.15.05-.21.08-.38c.09-.46.23-1.19.44-2.13a26.65,26.65,0,0,1,2.9-7.5,19,19,0,0,1,3.42-4.28,16.19,16.19,0,0,1,2.38-1.84c.43-.28.87-.53,1.35-.78l.65-.32.73-.33a19.81,19.81,0,0,1,6.22-1.55,41.07,41.07,0,0,1,6.39.13,42.93,42.93,0,0,0,6.07.18,19.88,19.88,0,0,0,5.63-1.18,40.05,40.05,0,0,0,5.08-2.21c1.57-.81,3-1.64,4.34-2.47a62.14,62.14,0,0,0,6.11-4.34c.7-.58,1.23-1,1.57-1.39a5.28,5.28,0,0,0,.5-.54l.11.08a7.34,7.34,0,0,1-.47.59c-.32.37-.82.89-1.48,1.52a54.19,54.19,0,0,1-5.88,4.78c-1.27.92-2.7,1.85-4.26,2.78a40.9,40.9,0,0,1-5.08,2.59,20,20,0,0,1-6,1.6,43.38,43.38,0,0,1-6.34.1,31.38,31.38,0,0,0-6,.19,16.8,16.8,0,0,0-5.3,1.69l-.58.3-.62.36c-.35.21-.74.44-1.08.69a12.86,12.86,0,0,0-1.9,1.6,15.66,15.66,0,0,0-2.7,3.67,22.62,22.62,0,0,0-2.2,6.63c-.15.85-.25,1.53-.32,2,0,.25-.07.45-.13.71l-.06.22Z" transform="translate(-33.89 -103.94)"/><path class="cls-10" d="M491.26,113a4.89,4.89,0,0,0-1.91-2.17c-2.83-1-6.2,2.43-7,3.25C485.22,116.26,488.57,114.69,491.26,113Z" transform="translate(-33.89 -103.94)"/><path class="cls-43" d="M499.38,138.33c-1-5.9-5-19.93-8.12-25.37-2.69,1.74-6.05,3.31-8.87,1.08l-.16.18c6.64,7.79,9.22,10.85,12,18.82,2.88,8.18,3.5,11.69,3.33,13s2.1.35,2.1.35S500.7,146.21,499.38,138.33Z" transform="translate(-33.89 -103.94)"/><g class="cls-5"><path class="cls-6" d="M488.27,112.7a1.12,1.12,0,0,1,.27,0,5.57,5.57,0,0,1,.9,1.28c1.79,3.09,4,9.4,5.63,15.24-2.39-5.78-5-9.08-10-14.91a6,6,0,0,1,3.17-1.64m0-2.1c-2.55,0-5.21,2.71-5.87,3.43l-.16.18c6.64,7.79,9.22,10.85,12,18.82,2.88,8.18,3.5,11.69,3.33,13-.07.54.26.69.68.69a4.58,4.58,0,0,0,1.43-.34s1-.13-.31-8c-1-5.9-5-19.93-8.12-25.37a4.89,4.89,0,0,0-1.91-2.17,3.21,3.21,0,0,0-1.09-.19Z" transform="translate(-33.89 -103.94)"/></g></g></svg>